<?xml version="1.0" standalone="no"?>
<!DOCTYPE svg PUBLIC "-//W3C//DTD SVG 20010904//EN"
 "http://www.w3.org/TR/2001/REC-SVG-20010904/DTD/svg10.dtd">
<svg version="1.0" xmlns="http://www.w3.org/2000/svg"
 width="512.000000pt" height="512.000000pt" viewBox="0 0 512.000000 512.000000"
 preserveAspectRatio="xMidYMid meet">

<g transform="translate(0.000000,512.000000) scale(0.100000,-0.100000)"
fill="#000000" stroke="none">
<path d="M3800 3971 c-312 -74 -629 -238 -925 -480 -157 -128 -396 -370 -555
-561 -25 -30 -59 -70 -75 -90 -39 -44 -118 -154 -180 -248 -27 -40 -49 -71
-51 -70 -1 2 11 44 28 93 95 285 144 527 136 676 -9 151 -58 248 -156 306 -44
26 -54 28 -162 28 -134 0 -186 -15 -334 -97 -240 -133 -527 -396 -726 -663
-25 -33 -48 -62 -51 -65 -10 -9 -111 -157 -173 -253 -138 -217 -269 -490 -358
-746 -43 -123 -42 -152 2 -166 39 -12 64 19 129 161 262 572 527 987 819 1282
366 369 706 517 826 359 47 -61 60 -117 53 -230 -13 -205 -92 -467 -309 -1027
-169 -435 -178 -459 -178 -489 0 -16 7 -34 16 -41 21 -19 70 -16 92 3 11 10
54 79 97 155 166 293 279 479 298 493 5 3 9 10 9 15 1 38 268 432 382 565 17
19 60 69 95 110 131 152 359 365 506 474 316 235 658 380 940 400 111 8 218
-11 310 -55 67 -32 143 -97 150 -127 2 -10 11 -36 20 -58 34 -78 5 -226 -65
-340 -28 -46 -141 -175 -153 -175 -5 0 -27 -15 -50 -34 -62 -49 -222 -142
-313 -180 -152 -64 -171 -75 -177 -98 -9 -33 18 -68 51 -68 15 0 61 7 104 15
136 26 251 26 435 1 56 -8 180 -66 225 -105 24 -21 53 -43 65 -50 13 -6 22
-15 20 -19 -1 -4 9 -25 23 -47 13 -22 25 -44 25 -50 1 -5 7 -28 13 -50 7 -22
12 -77 12 -122 0 -307 -264 -575 -687 -697 -146 -42 -253 -56 -419 -56 -166 0
-218 7 -336 47 -228 77 -317 274 -248 553 35 139 39 164 33 188 -4 16 -1 22
13 22 9 0 14 3 11 7 -4 3 5 26 19 50 14 24 23 49 21 56 -2 7 4 29 15 50 11 22
17 44 15 51 -3 7 4 18 14 24 22 14 25 38 7 44 -8 3 -2 15 17 32 17 15 30 31
31 34 2 14 16 48 40 94 13 27 24 54 24 62 0 8 6 19 13 23 21 12 227 471 227
504 0 22 -7 32 -25 41 -51 23 -66 4 -178 -224 -131 -266 -177 -366 -177 -387
0 -9 -10 -32 -22 -51 -12 -19 -23 -40 -24 -47 -1 -7 -9 -27 -18 -44 -9 -18
-16 -38 -16 -45 0 -6 -17 -46 -39 -88 -21 -42 -35 -74 -31 -71 4 2 -2 -13 -12
-35 -11 -21 -21 -45 -22 -52 -2 -7 -8 -26 -15 -42 -6 -16 -13 -36 -15 -45 -1
-9 -12 -47 -23 -86 -12 -38 -27 -109 -34 -156 -29 -204 43 -390 193 -505 77
-58 137 -86 248 -116 76 -21 106 -23 285 -22 170 0 216 3 305 23 357 78 616
224 784 441 50 64 95 149 89 167 -3 7 2 16 11 19 9 3 16 14 16 24 0 9 9 46 21
81 17 53 20 81 16 169 -2 58 -10 119 -16 135 -7 17 -11 30 -10 30 12 0 -71
131 -93 146 -15 11 -28 26 -28 33 0 16 -46 59 -67 62 -9 2 -20 9 -25 18 -9 15
-76 60 -93 61 -5 1 -41 16 -80 34 -50 24 -90 35 -137 38 -38 3 -68 7 -68 9 0
7 82 79 96 84 7 3 43 34 79 68 46 45 65 69 60 80 -3 9 -3 13 1 9 9 -8 74 51
74 68 0 6 12 27 26 48 14 21 28 50 30 65 3 15 14 47 26 72 26 55 35 172 18
224 -6 20 -16 34 -21 30 -6 -3 -8 5 -5 18 4 23 -17 88 -29 88 -3 0 -3 -5 0
-11 4 -6 -2 -5 -14 3 -12 7 -17 16 -11 22 13 13 -16 52 -57 77 -19 12 -32 24
-29 27 9 8 -56 49 -106 67 -138 52 -157 55 -291 54 -105 -1 -155 -7 -247 -28z
m797 -383 c-3 -8 -6 -5 -6 6 -1 11 2 17 5 13 3 -3 4 -12 1 -19z m-390 -814
c-3 -3 -12 -4 -19 -1 -8 3 -5 6 6 6 11 1 17 -2 13 -5z m563 -249 c0 -5 -5 -3
-10 5 -5 8 -10 20 -10 25 0 6 5 3 10 -5 5 -8 10 -19 10 -25z"/>
</g>
</svg>
