<?xml version="1.0" standalone="no"?>
<!DOCTYPE svg PUBLIC "-//W3C//DTD SVG 20010904//EN"
 "http://www.w3.org/TR/2001/REC-SVG-20010904/DTD/svg10.dtd">
<svg version="1.0" xmlns="http://www.w3.org/2000/svg"
 width="192.000000pt" height="192.000000pt" viewBox="0 0 192.000000 192.000000"
 preserveAspectRatio="xMidYMid meet">

<g transform="translate(0.000000,192.000000) scale(0.100000,-0.100000)"
fill="#000000" stroke="none">
<path d="M326 1909 c-114 -27 -233 -129 -289 -246 l-32 -68 0 -635 0 -635 32
-68 c44 -93 119 -169 212 -215 l75 -37 636 0 636 0 75 37 c93 46 168 122 212
215 l32 68 0 636 0 635 -37 75 c-46 93 -122 168 -215 212 l-68 32 -615 2
c-351 1 -632 -3 -654 -8z m835 -966 c-12 -20 -14 -14 -5 12 4 9 9 14 11 11 3
-2 0 -13 -6 -23z m506 -125 c-3 -8 -6 -5 -6 6 -1 11 2 17 5 13 3 -3 4 -12 1
-19z"/>
</g>
</svg>
